<svg width="26" height="25" viewBox="0 0 26 25" fill="none" xmlns="http://www.w3.org/2000/svg">
<path d="M8.66667 2.08334V5.20834V2.08334ZM17.3333 2.08334V5.20834V2.08334ZM3.79167 9.46876H22.2083H3.79167ZM22.75 8.85418V17.7083C22.75 20.8333 21.125 22.9167 17.3333 22.9167H8.66667C4.875 22.9167 3.25 20.8333 3.25 17.7083V8.85418C3.25 5.72918 4.875 3.64584 8.66667 3.64584H17.3333C21.125 3.64584 22.75 5.72918 22.75 8.85418Z" fill="#FFD2D2"/>
<path d="M8.66667 2.08334V5.20834M17.3333 2.08334V5.20834M3.79167 9.46876H22.2083M22.75 8.85418V17.7083C22.75 20.8333 21.125 22.9167 17.3333 22.9167H8.66667C4.875 22.9167 3.25 20.8333 3.25 17.7083V8.85418C3.25 5.72918 4.875 3.64584 8.66667 3.64584H17.3333C21.125 3.64584 22.75 5.72918 22.75 8.85418Z" stroke="#F14C4C" stroke-width="1.4" stroke-miterlimit="10" stroke-linecap="round" stroke-linejoin="round"/>
<path d="M17.0029 14.2708H17.0127M17.0029 17.3958H17.0127M12.9946 14.2708H13.0054M12.9946 17.3958H13.0054M8.98517 14.2708H8.996M8.98517 17.3958H8.996" stroke="#F14C4C" stroke-width="1.4" stroke-linecap="round" stroke-linejoin="round"/>
</svg>
