<svg width="22" height="22" viewBox="0 0 22 22" fill="none" xmlns="http://www.w3.org/2000/svg">
<path fill-rule="evenodd" clip-rule="evenodd" d="M2.70343 2.02759C1.58362 2.02759 0.675842 2.93537 0.675842 4.05517V14.869C0.675842 15.9888 1.58362 16.8966 2.70343 16.8966H9.03964L8.87067 18.2483H6.08274C5.70947 18.2483 5.40688 18.5509 5.40688 18.9241C5.40688 19.2974 5.70947 19.6 6.08274 19.6H15.5448C15.9181 19.6 16.2207 19.2974 16.2207 18.9241C16.2207 18.5509 15.9181 18.2483 15.5448 18.2483H12.7569L12.5879 16.8966H18.9241C20.0439 16.8966 20.9517 15.9888 20.9517 14.869V4.05517C20.9517 2.93537 20.0439 2.02759 18.9241 2.02759H2.70343ZM2.02757 4.05517C2.02757 3.68191 2.33016 3.37931 2.70343 3.37931H18.9241C19.2974 3.37931 19.6 3.68191 19.6 4.05517V12.8414H2.02757V4.05517ZM10.8138 15.5448C10.993 15.5448 11.1649 15.4736 11.2917 15.3469C11.4184 15.2201 11.4896 15.0482 11.4896 14.869C11.4896 14.7353 11.45 14.6046 11.3757 14.4935C11.3015 14.3823 11.1959 14.2957 11.0724 14.2446C10.9489 14.1934 10.813 14.18 10.6819 14.2061C10.5508 14.2322 10.4304 14.2965 10.3359 14.3911C10.2413 14.4856 10.177 14.606 10.1509 14.7371C10.1248 14.8682 10.1382 15.0041 10.1894 15.1276C10.2405 15.2511 10.3271 15.3567 10.4383 15.4309C10.5494 15.5052 10.6801 15.5448 10.8138 15.5448Z" fill="#263238"/>
</svg>
