<svg width="18" height="26" viewBox="0 0 18 26" fill="none" xmlns="http://www.w3.org/2000/svg">
<path d="M8.95083 11.6817C8.83417 11.67 8.69417 11.67 8.56583 11.6817C7.22674 11.6362 5.95792 11.0713 5.02807 10.1066C4.09822 9.14193 3.58036 7.85319 3.58417 6.51333C3.58417 3.655 5.89417 1.33333 8.76417 1.33333C10.1364 1.30858 11.4623 1.82997 12.4502 2.78281C13.438 3.73565 14.0069 5.04189 14.0317 6.41416C14.0564 7.78644 13.535 9.11234 12.5822 10.1002C11.6293 11.088 10.3231 11.6569 8.95083 11.6817ZM3.1175 15.9867C0.294167 17.8767 0.294167 20.9567 3.1175 22.835C6.32583 24.9817 11.5875 24.9817 14.7958 22.835C17.6192 20.945 17.6192 17.865 14.7958 15.9867C11.5992 13.8517 6.3375 13.8517 3.1175 15.9867Z" fill="#FFD3D3" stroke="#F14C4C" stroke-width="1.5" stroke-linecap="round" stroke-linejoin="round"/>
</svg>
