<svg width="17" height="17" viewBox="0 0 17 17" fill="none" xmlns="http://www.w3.org/2000/svg">
<path d="M11.6235 2.83335C12.9977 2.83335 14.1027 3.94543 14.1027 5.31251C14.1027 6.65126 13.0402 7.7421 11.7156 7.79168C11.6544 7.78459 11.5926 7.78459 11.5315 7.79168M12.9906 14.1667C13.5006 14.0604 13.9823 13.855 14.379 13.5504C15.484 12.7217 15.484 11.3546 14.379 10.5258C13.9894 10.2283 13.5148 10.03 13.0119 9.91668M6.48812 7.6996C6.41729 7.69251 6.33229 7.69251 6.25437 7.6996C5.44135 7.67199 4.67099 7.32902 4.10644 6.74332C3.54189 6.15761 3.22748 5.37517 3.22979 4.56168C3.22979 2.82626 4.63229 1.41668 6.37479 1.41668C7.20795 1.40165 8.01296 1.71821 8.61273 2.29672C9.21249 2.87523 9.55788 3.66831 9.57291 4.50147C9.58794 5.33464 9.27138 6.13965 8.69287 6.73942C8.11436 7.33918 7.32129 7.68457 6.48812 7.6996ZM2.94645 10.3133C1.23229 11.4608 1.23229 13.3308 2.94645 14.4713C4.89437 15.7746 8.08895 15.7746 10.0369 14.4713C11.751 13.3238 11.751 11.4538 10.0369 10.3133C8.09604 9.0171 4.90145 9.0171 2.94645 10.3133Z" stroke="#626262" stroke-width="1.3" stroke-linecap="round" stroke-linejoin="round"/>
</svg>
