<svg width="18" height="18" viewBox="0 0 18 18" fill="none" xmlns="http://www.w3.org/2000/svg">
<path d="M9 1.82812C7.58154 1.82812 6.19493 2.24875 5.01552 3.0368C3.83611 3.82486 2.91688 4.94495 2.37405 6.25544C1.83123 7.56593 1.68921 9.00796 1.96593 10.3992C2.24266 11.7904 2.92572 13.0683 3.92872 14.0713C4.93173 15.0743 6.20963 15.7573 7.60084 16.0341C8.99205 16.3108 10.4341 16.1688 11.7446 15.6259C13.055 15.0831 14.1751 14.1639 14.9632 12.9845C15.7513 11.8051 16.1719 10.4185 16.1719 9C16.1696 7.09859 15.4133 5.27569 14.0688 3.93119C12.7243 2.58668 10.9014 1.83036 9 1.82812ZM9 15.3281C7.74842 15.3281 6.52494 14.957 5.48429 14.2616C4.44363 13.5663 3.63254 12.578 3.15358 11.4217C2.67462 10.2654 2.5493 8.99298 2.79347 7.76544C3.03764 6.53791 3.64034 5.41034 4.52534 4.52534C5.41035 3.64034 6.53791 3.03764 7.76545 2.79347C8.99298 2.5493 10.2654 2.67461 11.4217 3.15357C12.578 3.63254 13.5663 4.44363 14.2616 5.48428C14.957 6.52494 15.3281 7.74841 15.3281 9C15.3263 10.6778 14.659 12.2863 13.4726 13.4726C12.2863 14.659 10.6778 15.3263 9 15.3281ZM13.3594 9C13.3594 9.11189 13.3149 9.21919 13.2358 9.29831C13.1567 9.37743 13.0494 9.42188 12.9375 9.42188H9C8.88811 9.42188 8.78081 9.37743 8.70169 9.29831C8.62258 9.21919 8.57813 9.11189 8.57813 9V5.0625C8.57813 4.95061 8.62258 4.84331 8.70169 4.76419C8.78081 4.68507 8.88811 4.64062 9 4.64062C9.11189 4.64062 9.2192 4.68507 9.29831 4.76419C9.37743 4.84331 9.42188 4.95061 9.42188 5.0625V8.57812H12.9375C13.0494 8.57812 13.1567 8.62257 13.2358 8.70169C13.3149 8.78081 13.3594 8.88811 13.3594 9Z" fill="#263238"/>
</svg>
