<svg width="8" height="14" viewBox="0 0 8 14" fill="none" xmlns="http://www.w3.org/2000/svg">
<path d="M3.066 13.736L3.248 10.922L4.018 11.006L3.85 13.736H3.066ZM4.704 3.054L3.92 2.942L4.102 0.814H4.872L4.704 3.054ZM3.976 12.154C3.64 12.154 3.26667 12.1307 2.856 12.084C2.44533 12.0467 2.04867 12 1.666 11.944C1.29267 11.888 0.970667 11.832 0.7 11.776L0.812 10.306C1.092 10.3433 1.414 10.3807 1.778 10.418C2.15133 10.4553 2.52 10.488 2.884 10.516C3.25733 10.544 3.57467 10.558 3.836 10.558C4.172 10.558 4.44733 10.516 4.662 10.432C4.886 10.3387 5.04933 10.2033 5.152 10.026C5.25467 9.83933 5.306 9.60133 5.306 9.312C5.306 9.07867 5.25467 8.89667 5.152 8.766C5.05867 8.626 4.89067 8.514 4.648 8.43C4.41467 8.346 4.08333 8.262 3.654 8.178C3.10333 8.07533 2.63667 7.95867 2.254 7.828C1.87133 7.688 1.55867 7.51533 1.316 7.31C1.08267 7.10467 0.91 6.848 0.798 6.54C0.686 6.232 0.63 5.84933 0.63 5.392C0.63 4.692 0.760667 4.14133 1.022 3.74C1.28333 3.32933 1.652 3.04 2.128 2.872C2.61333 2.704 3.18733 2.62 3.85 2.62C4.14867 2.62 4.48933 2.63867 4.872 2.676C5.25467 2.704 5.63267 2.74133 6.006 2.788C6.37933 2.83467 6.70133 2.88133 6.972 2.928L6.874 4.426C6.60333 4.398 6.29067 4.36533 5.936 4.328C5.58133 4.29067 5.23133 4.26267 4.886 4.244C4.54067 4.216 4.24667 4.202 4.004 4.202C3.668 4.202 3.388 4.23933 3.164 4.314C2.94933 4.38867 2.786 4.50067 2.674 4.65C2.57133 4.79933 2.52 4.986 2.52 5.21C2.52 5.48067 2.57133 5.69067 2.674 5.84C2.786 5.98 2.968 6.09667 3.22 6.19C3.472 6.274 3.822 6.36267 4.27 6.456C4.802 6.57733 5.25467 6.708 5.628 6.848C6.00133 6.97867 6.30467 7.13733 6.538 7.324C6.77133 7.51067 6.93933 7.75333 7.042 8.052C7.154 8.35067 7.21 8.72867 7.21 9.186C7.21 9.90467 7.07933 10.4833 6.818 10.922C6.566 11.3513 6.19733 11.664 5.712 11.86C5.236 12.056 4.65733 12.154 3.976 12.154Z" fill="black"/>
</svg>
