<svg width="32" height="32" viewBox="0 0 32 32" fill="none" xmlns="http://www.w3.org/2000/svg">
<path d="M13.0215 9.15259C9.43562 9.15259 6.52146 12.0668 6.52146 15.6526V18.7834C6.52146 19.4443 6.23979 20.4518 5.90396 21.0151L4.65812 23.0843C3.88896 24.3626 4.41979 25.7818 5.82812 26.2584C10.4973 27.8184 15.5348 27.8184 20.204 26.2584C21.5148 25.8251 22.089 24.2759 21.374 23.0843L20.1281 21.0151C19.8031 20.4518 19.5215 19.4443 19.5215 18.7834V15.6526C19.5215 12.0776 16.5965 9.15259 13.0215 9.15259Z" stroke="black" stroke-width="1.625" stroke-miterlimit="10" stroke-linecap="round"/>
<path d="M15.0257 9.46665C13.7157 9.09354 12.3275 9.09354 11.0174 9.46665C11.3316 8.66499 12.1116 8.10165 13.0216 8.10165C13.9316 8.10165 14.7116 8.66499 15.0257 9.46665Z" stroke="black" stroke-width="1.625" stroke-miterlimit="10" stroke-linecap="round" stroke-linejoin="round"/>
<path d="M16.2712 26.6483C16.2712 28.4358 14.8087 29.8983 13.0212 29.8983C12.1328 29.8983 11.3095 29.53 10.7245 28.945C10.1158 28.3354 9.77312 27.5098 9.77118 26.6483" stroke="black" stroke-width="1.625" stroke-miterlimit="10"/>
<rect x="12" y="1" width="20" height="20" rx="10" fill="#F15050"/>
<path d="M19.708 15V13.704L21.52 11.844C21.864 11.492 22.16 11.184 22.408 10.92C22.656 10.648 22.844 10.392 22.972 10.152C23.108 9.912 23.176 9.656 23.176 9.384C23.176 8.984 23.064 8.716 22.84 8.58C22.616 8.436 22.256 8.364 21.76 8.364C21.56 8.364 21.34 8.376 21.1 8.4C20.86 8.424 20.628 8.452 20.404 8.484C20.188 8.516 20 8.548 19.84 8.58L19.756 7.308C19.932 7.26 20.148 7.208 20.404 7.152C20.668 7.096 20.952 7.048 21.256 7.008C21.568 6.96 21.872 6.936 22.168 6.936C23.032 6.936 23.692 7.12 24.148 7.488C24.604 7.848 24.832 8.408 24.832 9.168C24.832 9.584 24.772 9.952 24.652 10.272C24.54 10.592 24.36 10.9 24.112 11.196C23.872 11.484 23.552 11.8 23.152 12.144L21.568 13.656H24.94V15H19.708Z" fill="white"/>
</svg>
