<svg width="28" height="28" viewBox="0 0 28 28" fill="none" xmlns="http://www.w3.org/2000/svg">
<path d="M14 17.5C14.9283 17.5 15.8185 17.1313 16.4749 16.4749C17.1313 15.8185 17.5 14.9283 17.5 14C17.5 13.0717 17.1313 12.1815 16.4749 11.5251C15.8185 10.8687 14.9283 10.5 14 10.5C13.0717 10.5 12.1815 10.8687 11.5251 11.5251C10.8687 12.1815 10.5 13.0717 10.5 14C10.5 14.9283 10.8687 15.8185 11.5251 16.4749C12.1815 17.1313 13.0717 17.5 14 17.5Z" stroke="black" stroke-width="1.75" stroke-miterlimit="10" stroke-linecap="round" stroke-linejoin="round"/>
<path d="M2.33331 15.0267V12.9734C2.33331 11.7601 3.32498 10.7567 4.54998 10.7567C6.66165 10.7567 7.52498 9.26339 6.46331 7.43172C5.85665 6.38172 6.21831 5.01672 7.27998 4.41006L9.29831 3.25506C10.22 2.70672 11.41 3.03339 11.9583 3.95506L12.0866 4.17672C13.1366 6.00839 14.8633 6.00839 15.925 4.17672L16.0533 3.95506C16.6016 3.03339 17.7916 2.70672 18.7133 3.25506L20.7316 4.41006C21.7933 5.01672 22.155 6.38172 21.5483 7.43172C20.4866 9.26339 21.35 10.7567 23.4616 10.7567C24.675 10.7567 25.6783 11.7484 25.6783 12.9734V15.0267C25.6783 16.2401 24.6866 17.2434 23.4616 17.2434C21.35 17.2434 20.4866 18.7367 21.5483 20.5684C22.155 21.6301 21.7933 22.9834 20.7316 23.5901L18.7133 24.7451C17.7916 25.2934 16.6016 24.9667 16.0533 24.0451L15.925 23.8234C14.875 21.9917 13.1483 21.9917 12.0866 23.8234L11.9583 24.0451C11.41 24.9667 10.22 25.2934 9.29831 24.7451L7.27998 23.5901C6.77143 23.2972 6.39982 22.8146 6.24672 22.2481C6.09361 21.6816 6.17151 21.0775 6.46331 20.5684C7.52498 18.7367 6.66165 17.2434 4.54998 17.2434C3.32498 17.2434 2.33331 16.2401 2.33331 15.0267Z" stroke="black" stroke-width="1.75" stroke-miterlimit="10" stroke-linecap="round" stroke-linejoin="round"/>
</svg>
