<svg width="30" height="30" viewBox="0 0 30 30" fill="none" xmlns="http://www.w3.org/2000/svg">
<path d="M24.375 15.625C24.375 14.7962 24.7042 14.0013 25.2903 13.4153C25.8763 12.8292 26.6712 12.5 27.5 12.5V11.25C27.5 6.25 26.25 5 21.25 5H8.75C3.75 5 2.5 6.25 2.5 11.25V11.875C3.3288 11.875 4.12366 12.2042 4.70971 12.7903C5.29576 13.3763 5.625 14.1712 5.625 15C5.625 15.8288 5.29576 16.6237 4.70971 17.2097C4.12366 17.7958 3.3288 18.125 2.5 18.125V18.75C2.5 23.75 3.75 25 8.75 25H21.25C26.25 25 27.5 23.75 27.5 18.75C26.6712 18.75 25.8763 18.4208 25.2903 17.8347C24.7042 17.2487 24.375 16.4538 24.375 15.625Z" fill="#FFDDD6" stroke="#F14C4C" stroke-width="1.5" stroke-linecap="round" stroke-linejoin="round"/>
<path d="M12.5 5V25" stroke="#F14C4C" stroke-width="1.5" stroke-linecap="round" stroke-linejoin="round" stroke-dasharray="5 5"/>
</svg>
